<mxfile host="app.diagrams.net" modified="2023-07-15T07:31:00.137Z" agent="Mozilla/5.0 (Macintosh; Intel Mac OS X 10_15_7) AppleWebKit/537.36 (KHTML, like Gecko) Chrome/114.0.0.0 Safari/537.36" etag="pB6ueFe-ps40MyLiaLH9" version="21.6.1" type="github">
  <diagram name="第 1 页" id="geORoSbtRlsgjxlfL54r">
    <mxGraphModel dx="1306" dy="726" grid="1" gridSize="10" guides="1" tooltips="1" connect="1" arrows="1" fold="1" page="1" pageScale="1" pageWidth="827" pageHeight="1169" math="0" shadow="0">
      <root>
        <mxCell id="0" />
        <mxCell id="1" parent="0" />
        <mxCell id="rUhud2PPhJoLH6mJPej0-8" value="" style="edgeStyle=orthogonalEdgeStyle;rounded=0;orthogonalLoop=1;jettySize=auto;html=1;" edge="1" parent="1" source="rUhud2PPhJoLH6mJPej0-1" target="rUhud2PPhJoLH6mJPej0-7">
          <mxGeometry relative="1" as="geometry" />
        </mxCell>
        <mxCell id="rUhud2PPhJoLH6mJPej0-1" value="get key" style="rounded=1;whiteSpace=wrap;html=1;" vertex="1" parent="1">
          <mxGeometry x="170" y="140" width="120" height="60" as="geometry" />
        </mxCell>
        <mxCell id="rUhud2PPhJoLH6mJPej0-11" value="" style="edgeStyle=orthogonalEdgeStyle;rounded=0;orthogonalLoop=1;jettySize=auto;html=1;" edge="1" parent="1" source="rUhud2PPhJoLH6mJPej0-7" target="rUhud2PPhJoLH6mJPej0-10">
          <mxGeometry relative="1" as="geometry" />
        </mxCell>
        <mxCell id="rUhud2PPhJoLH6mJPej0-17" value="" style="edgeStyle=orthogonalEdgeStyle;rounded=0;orthogonalLoop=1;jettySize=auto;html=1;" edge="1" parent="1" source="rUhud2PPhJoLH6mJPej0-7" target="rUhud2PPhJoLH6mJPej0-16">
          <mxGeometry relative="1" as="geometry" />
        </mxCell>
        <mxCell id="rUhud2PPhJoLH6mJPej0-7" value="缓存是否命中" style="rhombus;whiteSpace=wrap;html=1;rounded=1;" vertex="1" parent="1">
          <mxGeometry x="190" y="270" width="80" height="80" as="geometry" />
        </mxCell>
        <mxCell id="rUhud2PPhJoLH6mJPej0-9" value="是" style="text;html=1;strokeColor=none;fillColor=none;align=center;verticalAlign=middle;whiteSpace=wrap;rounded=0;" vertex="1" parent="1">
          <mxGeometry x="160" y="370" width="60" height="30" as="geometry" />
        </mxCell>
        <mxCell id="rUhud2PPhJoLH6mJPej0-31" style="edgeStyle=orthogonalEdgeStyle;rounded=0;orthogonalLoop=1;jettySize=auto;html=1;entryX=1;entryY=0.5;entryDx=0;entryDy=0;" edge="1" parent="1" source="rUhud2PPhJoLH6mJPej0-10" target="rUhud2PPhJoLH6mJPej0-25">
          <mxGeometry relative="1" as="geometry">
            <Array as="points">
              <mxPoint x="530" y="970" />
            </Array>
          </mxGeometry>
        </mxCell>
        <mxCell id="rUhud2PPhJoLH6mJPej0-10" value="cacheLoader.load()&lt;br&gt;加载缓存" style="whiteSpace=wrap;html=1;rounded=1;" vertex="1" parent="1">
          <mxGeometry x="470" y="800" width="120" height="60" as="geometry" />
        </mxCell>
        <mxCell id="rUhud2PPhJoLH6mJPej0-12" value="否" style="text;html=1;strokeColor=none;fillColor=none;align=center;verticalAlign=middle;whiteSpace=wrap;rounded=0;" vertex="1" parent="1">
          <mxGeometry x="370" y="270" width="60" height="30" as="geometry" />
        </mxCell>
        <mxCell id="rUhud2PPhJoLH6mJPej0-19" value="" style="edgeStyle=orthogonalEdgeStyle;rounded=0;orthogonalLoop=1;jettySize=auto;html=1;" edge="1" parent="1" source="rUhud2PPhJoLH6mJPej0-16" target="rUhud2PPhJoLH6mJPej0-18">
          <mxGeometry relative="1" as="geometry" />
        </mxCell>
        <mxCell id="rUhud2PPhJoLH6mJPej0-16" value="缓存是否过期" style="rhombus;whiteSpace=wrap;html=1;rounded=1;" vertex="1" parent="1">
          <mxGeometry x="190" y="430" width="80" height="80" as="geometry" />
        </mxCell>
        <mxCell id="rUhud2PPhJoLH6mJPej0-26" value="" style="edgeStyle=orthogonalEdgeStyle;rounded=0;orthogonalLoop=1;jettySize=auto;html=1;" edge="1" parent="1" source="rUhud2PPhJoLH6mJPej0-18" target="rUhud2PPhJoLH6mJPej0-25">
          <mxGeometry relative="1" as="geometry" />
        </mxCell>
        <mxCell id="rUhud2PPhJoLH6mJPej0-29" value="" style="edgeStyle=orthogonalEdgeStyle;rounded=0;orthogonalLoop=1;jettySize=auto;html=1;" edge="1" parent="1" source="rUhud2PPhJoLH6mJPej0-18" target="rUhud2PPhJoLH6mJPej0-28">
          <mxGeometry relative="1" as="geometry" />
        </mxCell>
        <mxCell id="rUhud2PPhJoLH6mJPej0-18" value="缓存是否&lt;br&gt;refresh" style="rhombus;whiteSpace=wrap;html=1;rounded=1;" vertex="1" parent="1">
          <mxGeometry x="190" y="590" width="80" height="80" as="geometry" />
        </mxCell>
        <mxCell id="rUhud2PPhJoLH6mJPej0-20" value="否" style="text;html=1;strokeColor=none;fillColor=none;align=center;verticalAlign=middle;whiteSpace=wrap;rounded=0;" vertex="1" parent="1">
          <mxGeometry x="160" y="530" width="60" height="30" as="geometry" />
        </mxCell>
        <mxCell id="rUhud2PPhJoLH6mJPej0-22" value="" style="endArrow=none;html=1;rounded=0;exitX=1;exitY=0.5;exitDx=0;exitDy=0;" edge="1" parent="1" source="rUhud2PPhJoLH6mJPej0-16">
          <mxGeometry width="50" height="50" relative="1" as="geometry">
            <mxPoint x="390" y="540" as="sourcePoint" />
            <mxPoint x="530" y="470" as="targetPoint" />
          </mxGeometry>
        </mxCell>
        <mxCell id="rUhud2PPhJoLH6mJPej0-23" value="是" style="text;html=1;strokeColor=none;fillColor=none;align=center;verticalAlign=middle;whiteSpace=wrap;rounded=0;" vertex="1" parent="1">
          <mxGeometry x="360" y="430" width="60" height="30" as="geometry" />
        </mxCell>
        <mxCell id="rUhud2PPhJoLH6mJPej0-25" value="返回结果" style="whiteSpace=wrap;html=1;rounded=1;" vertex="1" parent="1">
          <mxGeometry x="170" y="940" width="120" height="60" as="geometry" />
        </mxCell>
        <mxCell id="rUhud2PPhJoLH6mJPej0-27" value="否" style="text;html=1;strokeColor=none;fillColor=none;align=center;verticalAlign=middle;whiteSpace=wrap;rounded=0;" vertex="1" parent="1">
          <mxGeometry x="160" y="820" width="60" height="30" as="geometry" />
        </mxCell>
        <mxCell id="rUhud2PPhJoLH6mJPej0-28" value="cacheLoader.reload()&lt;br&gt;加载缓存" style="whiteSpace=wrap;html=1;rounded=1;" vertex="1" parent="1">
          <mxGeometry x="330" y="600" width="120" height="60" as="geometry" />
        </mxCell>
        <mxCell id="rUhud2PPhJoLH6mJPej0-35" value="" style="endArrow=none;html=1;rounded=0;exitX=1;exitY=0.5;exitDx=0;exitDy=0;" edge="1" parent="1" source="rUhud2PPhJoLH6mJPej0-28">
          <mxGeometry width="50" height="50" relative="1" as="geometry">
            <mxPoint x="390" y="670" as="sourcePoint" />
            <mxPoint x="530" y="630" as="targetPoint" />
          </mxGeometry>
        </mxCell>
        <mxCell id="rUhud2PPhJoLH6mJPej0-51" style="edgeStyle=orthogonalEdgeStyle;rounded=0;orthogonalLoop=1;jettySize=auto;html=1;entryX=0.481;entryY=1;entryDx=0;entryDy=0;entryPerimeter=0;" edge="1" parent="1" source="rUhud2PPhJoLH6mJPej0-37" target="rUhud2PPhJoLH6mJPej0-50">
          <mxGeometry relative="1" as="geometry" />
        </mxCell>
        <mxCell id="rUhud2PPhJoLH6mJPej0-70" style="edgeStyle=orthogonalEdgeStyle;rounded=0;orthogonalLoop=1;jettySize=auto;html=1;exitX=0.5;exitY=0;exitDx=0;exitDy=0;" edge="1" parent="1" source="rUhud2PPhJoLH6mJPej0-64" target="rUhud2PPhJoLH6mJPej0-37">
          <mxGeometry relative="1" as="geometry" />
        </mxCell>
        <mxCell id="rUhud2PPhJoLH6mJPej0-37" value="LocalCache&amp;lt;K,V&amp;gt;" style="swimlane;fontStyle=1;align=center;verticalAlign=top;childLayout=stackLayout;horizontal=1;startSize=26;horizontalStack=0;resizeParent=1;resizeParentMax=0;resizeLast=0;collapsible=1;marginBottom=0;whiteSpace=wrap;html=1;" vertex="1" parent="1">
          <mxGeometry x="1140" y="240" width="200" height="328" as="geometry" />
        </mxCell>
        <mxCell id="rUhud2PPhJoLH6mJPej0-38" value="+ segments: Segment&amp;lt;K,V&amp;gt;[]&amp;nbsp;" style="text;strokeColor=none;fillColor=none;align=left;verticalAlign=top;spacingLeft=4;spacingRight=4;overflow=hidden;rotatable=0;points=[[0,0.5],[1,0.5]];portConstraint=eastwest;whiteSpace=wrap;html=1;" vertex="1" parent="rUhud2PPhJoLH6mJPej0-37">
          <mxGeometry y="26" width="200" height="26" as="geometry" />
        </mxCell>
        <mxCell id="rUhud2PPhJoLH6mJPej0-54" value="+ concurrencyLevel: int&amp;nbsp;" style="text;strokeColor=none;fillColor=none;align=left;verticalAlign=top;spacingLeft=4;spacingRight=4;overflow=hidden;rotatable=0;points=[[0,0.5],[1,0.5]];portConstraint=eastwest;whiteSpace=wrap;html=1;" vertex="1" parent="rUhud2PPhJoLH6mJPej0-37">
          <mxGeometry y="52" width="200" height="26" as="geometry" />
        </mxCell>
        <mxCell id="rUhud2PPhJoLH6mJPej0-55" value="+&amp;nbsp;expireAfterAccessNanos&lt;span style=&quot;background-color: initial;&quot;&gt;: long&amp;nbsp;&lt;/span&gt;" style="text;strokeColor=none;fillColor=none;align=left;verticalAlign=top;spacingLeft=4;spacingRight=4;overflow=hidden;rotatable=0;points=[[0,0.5],[1,0.5]];portConstraint=eastwest;whiteSpace=wrap;html=1;" vertex="1" parent="rUhud2PPhJoLH6mJPej0-37">
          <mxGeometry y="78" width="200" height="26" as="geometry" />
        </mxCell>
        <mxCell id="rUhud2PPhJoLH6mJPej0-56" value="+&amp;nbsp;expireAfterWriteNanos&lt;span style=&quot;background-color: initial;&quot;&gt;: long&amp;nbsp;&lt;/span&gt;" style="text;strokeColor=none;fillColor=none;align=left;verticalAlign=top;spacingLeft=4;spacingRight=4;overflow=hidden;rotatable=0;points=[[0,0.5],[1,0.5]];portConstraint=eastwest;whiteSpace=wrap;html=1;" vertex="1" parent="rUhud2PPhJoLH6mJPej0-37">
          <mxGeometry y="104" width="200" height="26" as="geometry" />
        </mxCell>
        <mxCell id="rUhud2PPhJoLH6mJPej0-57" value="+&amp;nbsp;refreshNanos&lt;span style=&quot;background-color: initial;&quot;&gt;: long&amp;nbsp;&lt;/span&gt;" style="text;strokeColor=none;fillColor=none;align=left;verticalAlign=top;spacingLeft=4;spacingRight=4;overflow=hidden;rotatable=0;points=[[0,0.5],[1,0.5]];portConstraint=eastwest;whiteSpace=wrap;html=1;" vertex="1" parent="rUhud2PPhJoLH6mJPej0-37">
          <mxGeometry y="130" width="200" height="26" as="geometry" />
        </mxCell>
        <mxCell id="rUhud2PPhJoLH6mJPej0-58" value="+&amp;nbsp;removalNotificationQueue&lt;span style=&quot;background-color: initial;&quot;&gt;:&lt;br&gt;Queue&amp;lt;RemovalNotification&amp;lt;K,V&amp;gt;&amp;gt;&amp;nbsp;&lt;/span&gt;" style="text;strokeColor=none;fillColor=none;align=left;verticalAlign=top;spacingLeft=4;spacingRight=4;overflow=hidden;rotatable=0;points=[[0,0.5],[1,0.5]];portConstraint=eastwest;whiteSpace=wrap;html=1;" vertex="1" parent="rUhud2PPhJoLH6mJPej0-37">
          <mxGeometry y="156" width="200" height="34" as="geometry" />
        </mxCell>
        <mxCell id="rUhud2PPhJoLH6mJPej0-59" value="+&amp;nbsp;removalListener&lt;span style=&quot;background-color: initial;&quot;&gt;: RemovalListener&amp;lt;K,V&amp;gt;&amp;nbsp;&lt;/span&gt;" style="text;strokeColor=none;fillColor=none;align=left;verticalAlign=top;spacingLeft=4;spacingRight=4;overflow=hidden;rotatable=0;points=[[0,0.5],[1,0.5]];portConstraint=eastwest;whiteSpace=wrap;html=1;" vertex="1" parent="rUhud2PPhJoLH6mJPej0-37">
          <mxGeometry y="190" width="200" height="34" as="geometry" />
        </mxCell>
        <mxCell id="rUhud2PPhJoLH6mJPej0-60" value="+ ticker&lt;span style=&quot;background-color: initial;&quot;&gt;: Ticker&amp;nbsp;&lt;/span&gt;" style="text;strokeColor=none;fillColor=none;align=left;verticalAlign=top;spacingLeft=4;spacingRight=4;overflow=hidden;rotatable=0;points=[[0,0.5],[1,0.5]];portConstraint=eastwest;whiteSpace=wrap;html=1;" vertex="1" parent="rUhud2PPhJoLH6mJPej0-37">
          <mxGeometry y="224" width="200" height="26" as="geometry" />
        </mxCell>
        <mxCell id="rUhud2PPhJoLH6mJPej0-61" value="+ entryFactory&lt;span style=&quot;background-color: initial;&quot;&gt;: EntryFactory&amp;nbsp;&lt;/span&gt;" style="text;strokeColor=none;fillColor=none;align=left;verticalAlign=top;spacingLeft=4;spacingRight=4;overflow=hidden;rotatable=0;points=[[0,0.5],[1,0.5]];portConstraint=eastwest;whiteSpace=wrap;html=1;" vertex="1" parent="rUhud2PPhJoLH6mJPej0-37">
          <mxGeometry y="250" width="200" height="26" as="geometry" />
        </mxCell>
        <mxCell id="rUhud2PPhJoLH6mJPej0-62" value="+ keyStrength&lt;span style=&quot;background-color: initial;&quot;&gt;: Strength&lt;/span&gt;" style="text;strokeColor=none;fillColor=none;align=left;verticalAlign=top;spacingLeft=4;spacingRight=4;overflow=hidden;rotatable=0;points=[[0,0.5],[1,0.5]];portConstraint=eastwest;whiteSpace=wrap;html=1;" vertex="1" parent="rUhud2PPhJoLH6mJPej0-37">
          <mxGeometry y="276" width="200" height="26" as="geometry" />
        </mxCell>
        <mxCell id="rUhud2PPhJoLH6mJPej0-63" value="+ valueStrength&lt;span style=&quot;background-color: initial;&quot;&gt;: Strength&lt;/span&gt;" style="text;strokeColor=none;fillColor=none;align=left;verticalAlign=top;spacingLeft=4;spacingRight=4;overflow=hidden;rotatable=0;points=[[0,0.5],[1,0.5]];portConstraint=eastwest;whiteSpace=wrap;html=1;" vertex="1" parent="rUhud2PPhJoLH6mJPej0-37">
          <mxGeometry y="302" width="200" height="26" as="geometry" />
        </mxCell>
        <mxCell id="rUhud2PPhJoLH6mJPej0-41" value="" style="endArrow=block;dashed=1;endFill=0;endSize=12;html=1;rounded=0;exitX=0.5;exitY=0;exitDx=0;exitDy=0;edgeStyle=orthogonalEdgeStyle;entryX=0.5;entryY=1;entryDx=0;entryDy=0;" edge="1" parent="1" source="rUhud2PPhJoLH6mJPej0-37" target="rUhud2PPhJoLH6mJPej0-46">
          <mxGeometry width="160" relative="1" as="geometry">
            <mxPoint x="1290" y="450" as="sourcePoint" />
            <mxPoint x="1241.304347826087" y="161" as="targetPoint" />
            <Array as="points">
              <mxPoint x="1240" y="200" />
              <mxPoint x="1395" y="200" />
            </Array>
          </mxGeometry>
        </mxCell>
        <mxCell id="rUhud2PPhJoLH6mJPej0-46" value="&lt;p style=&quot;margin:0px;margin-top:4px;text-align:center;&quot;&gt;&lt;i&gt;&amp;lt;&amp;lt;Interface&amp;gt;&amp;gt;&lt;/i&gt;&lt;br&gt;&lt;b&gt;ConcurrentMap&lt;/b&gt;&lt;/p&gt;&lt;hr size=&quot;1&quot;&gt;&lt;p style=&quot;margin:0px;margin-left:4px;&quot;&gt;+ field1: Type&lt;br&gt;+ field2: Type&lt;/p&gt;&lt;hr size=&quot;1&quot;&gt;&lt;p style=&quot;margin:0px;margin-left:4px;&quot;&gt;+ method1(Type): Type&lt;br&gt;+ method2(Type, Type): Type&lt;/p&gt;" style="verticalAlign=top;align=left;overflow=fill;fontSize=12;fontFamily=Helvetica;html=1;whiteSpace=wrap;" vertex="1" parent="1">
          <mxGeometry x="1300" y="20" width="190" height="140" as="geometry" />
        </mxCell>
        <mxCell id="rUhud2PPhJoLH6mJPej0-47" value="AbstractMap&lt;br&gt;" style="swimlane;fontStyle=1;align=center;verticalAlign=top;childLayout=stackLayout;horizontal=1;startSize=26;horizontalStack=0;resizeParent=1;resizeParentMax=0;resizeLast=0;collapsible=1;marginBottom=0;whiteSpace=wrap;html=1;" vertex="1" parent="1">
          <mxGeometry x="1000" y="52" width="160" height="108" as="geometry" />
        </mxCell>
        <mxCell id="rUhud2PPhJoLH6mJPej0-48" value="+ field: type" style="text;strokeColor=none;fillColor=none;align=left;verticalAlign=top;spacingLeft=4;spacingRight=4;overflow=hidden;rotatable=0;points=[[0,0.5],[1,0.5]];portConstraint=eastwest;whiteSpace=wrap;html=1;" vertex="1" parent="rUhud2PPhJoLH6mJPej0-47">
          <mxGeometry y="26" width="160" height="24" as="geometry" />
        </mxCell>
        <mxCell id="rUhud2PPhJoLH6mJPej0-53" value="+ field: type" style="text;strokeColor=none;fillColor=none;align=left;verticalAlign=top;spacingLeft=4;spacingRight=4;overflow=hidden;rotatable=0;points=[[0,0.5],[1,0.5]];portConstraint=eastwest;whiteSpace=wrap;html=1;" vertex="1" parent="rUhud2PPhJoLH6mJPej0-47">
          <mxGeometry y="50" width="160" height="24" as="geometry" />
        </mxCell>
        <mxCell id="rUhud2PPhJoLH6mJPej0-49" value="" style="line;strokeWidth=1;fillColor=none;align=left;verticalAlign=middle;spacingTop=-1;spacingLeft=3;spacingRight=3;rotatable=0;labelPosition=right;points=[];portConstraint=eastwest;strokeColor=inherit;" vertex="1" parent="rUhud2PPhJoLH6mJPej0-47">
          <mxGeometry y="74" width="160" height="8" as="geometry" />
        </mxCell>
        <mxCell id="rUhud2PPhJoLH6mJPej0-50" value="+ method(type): type" style="text;strokeColor=none;fillColor=none;align=left;verticalAlign=top;spacingLeft=4;spacingRight=4;overflow=hidden;rotatable=0;points=[[0,0.5],[1,0.5]];portConstraint=eastwest;whiteSpace=wrap;html=1;" vertex="1" parent="rUhud2PPhJoLH6mJPej0-47">
          <mxGeometry y="82" width="160" height="26" as="geometry" />
        </mxCell>
        <mxCell id="rUhud2PPhJoLH6mJPej0-76" value="" style="edgeStyle=orthogonalEdgeStyle;rounded=0;orthogonalLoop=1;jettySize=auto;html=1;" edge="1" parent="1" source="rUhud2PPhJoLH6mJPej0-64" target="rUhud2PPhJoLH6mJPej0-72">
          <mxGeometry relative="1" as="geometry" />
        </mxCell>
        <mxCell id="rUhud2PPhJoLH6mJPej0-64" value="Segment&amp;lt;K,V&amp;gt;" style="swimlane;fontStyle=1;align=center;verticalAlign=top;childLayout=stackLayout;horizontal=1;startSize=26;horizontalStack=0;resizeParent=1;resizeParentMax=0;resizeLast=0;collapsible=1;marginBottom=0;whiteSpace=wrap;html=1;" vertex="1" parent="1">
          <mxGeometry x="1160" y="670" width="160" height="86" as="geometry" />
        </mxCell>
        <mxCell id="rUhud2PPhJoLH6mJPej0-65" value="+ field: type" style="text;strokeColor=none;fillColor=none;align=left;verticalAlign=top;spacingLeft=4;spacingRight=4;overflow=hidden;rotatable=0;points=[[0,0.5],[1,0.5]];portConstraint=eastwest;whiteSpace=wrap;html=1;" vertex="1" parent="rUhud2PPhJoLH6mJPej0-64">
          <mxGeometry y="26" width="160" height="26" as="geometry" />
        </mxCell>
        <mxCell id="rUhud2PPhJoLH6mJPej0-66" value="" style="line;strokeWidth=1;fillColor=none;align=left;verticalAlign=middle;spacingTop=-1;spacingLeft=3;spacingRight=3;rotatable=0;labelPosition=right;points=[];portConstraint=eastwest;strokeColor=inherit;" vertex="1" parent="rUhud2PPhJoLH6mJPej0-64">
          <mxGeometry y="52" width="160" height="8" as="geometry" />
        </mxCell>
        <mxCell id="rUhud2PPhJoLH6mJPej0-67" value="+ method(type): type" style="text;strokeColor=none;fillColor=none;align=left;verticalAlign=top;spacingLeft=4;spacingRight=4;overflow=hidden;rotatable=0;points=[[0,0.5],[1,0.5]];portConstraint=eastwest;whiteSpace=wrap;html=1;" vertex="1" parent="rUhud2PPhJoLH6mJPej0-64">
          <mxGeometry y="60" width="160" height="26" as="geometry" />
        </mxCell>
        <mxCell id="rUhud2PPhJoLH6mJPej0-71" value="inner class" style="text;html=1;strokeColor=none;fillColor=none;align=center;verticalAlign=middle;whiteSpace=wrap;rounded=0;" vertex="1" parent="1">
          <mxGeometry x="1250" y="610" width="60" height="30" as="geometry" />
        </mxCell>
        <mxCell id="rUhud2PPhJoLH6mJPej0-72" value="ReentrantLock" style="swimlane;fontStyle=1;align=center;verticalAlign=top;childLayout=stackLayout;horizontal=1;startSize=26;horizontalStack=0;resizeParent=1;resizeParentMax=0;resizeLast=0;collapsible=1;marginBottom=0;whiteSpace=wrap;html=1;" vertex="1" parent="1">
          <mxGeometry x="1430" y="670" width="160" height="86" as="geometry" />
        </mxCell>
        <mxCell id="rUhud2PPhJoLH6mJPej0-73" value="+ field: type" style="text;strokeColor=none;fillColor=none;align=left;verticalAlign=top;spacingLeft=4;spacingRight=4;overflow=hidden;rotatable=0;points=[[0,0.5],[1,0.5]];portConstraint=eastwest;whiteSpace=wrap;html=1;" vertex="1" parent="rUhud2PPhJoLH6mJPej0-72">
          <mxGeometry y="26" width="160" height="26" as="geometry" />
        </mxCell>
        <mxCell id="rUhud2PPhJoLH6mJPej0-74" value="" style="line;strokeWidth=1;fillColor=none;align=left;verticalAlign=middle;spacingTop=-1;spacingLeft=3;spacingRight=3;rotatable=0;labelPosition=right;points=[];portConstraint=eastwest;strokeColor=inherit;" vertex="1" parent="rUhud2PPhJoLH6mJPej0-72">
          <mxGeometry y="52" width="160" height="8" as="geometry" />
        </mxCell>
        <mxCell id="rUhud2PPhJoLH6mJPej0-75" value="+ method(type): type" style="text;strokeColor=none;fillColor=none;align=left;verticalAlign=top;spacingLeft=4;spacingRight=4;overflow=hidden;rotatable=0;points=[[0,0.5],[1,0.5]];portConstraint=eastwest;whiteSpace=wrap;html=1;" vertex="1" parent="rUhud2PPhJoLH6mJPej0-72">
          <mxGeometry y="60" width="160" height="26" as="geometry" />
        </mxCell>
        <mxCell id="rUhud2PPhJoLH6mJPej0-77" value="extends" style="text;html=1;strokeColor=none;fillColor=none;align=center;verticalAlign=middle;whiteSpace=wrap;rounded=0;" vertex="1" parent="1">
          <mxGeometry x="1350" y="680" width="60" height="30" as="geometry" />
        </mxCell>
      </root>
    </mxGraphModel>
  </diagram>
</mxfile>
